# xmcd CD database file
#
# Track frame offsets:
#	150
#	24244
#	44851
#	65138
#	83670
#	106587
#	123181
#	140764
#	169994
#	187181
#	204394
#	217105
#
# Disc length: 3267 seconds
#
# Revision: 0
# Processed by: cddbd v1.5.1PL0 Copyright (c) Steve Scherf et al.
# Submitted via: CDex 1.51
#
DISCID=b40cc10c
DTITLE=Ostbahn Kurt - Ohjo
DYEAR=2001
DGENRE=Blues
TTITLE0=Ohjo
TTITLE1=Host Recht
TTITLE2=57 Engel
TTITLE3=In dera Bar
TTITLE4=Jetzt is jetzt
TTITLE5=Passen und Warten
TTITLE6=So vü Täg und so vü Nächt
TTITLE7=Da Talking Blachutta Blues
TTITLE8=Liegn oda knien
TTITLE9=A batzn Hetz
TTITLE10=Folgendes
TTITLE11=So oda so
EXTD=YEAR: 2001
EXTT0=
EXTT1=
EXTT2=
EXTT3=
EXTT4=
EXTT5=
EXTT6=
EXTT7=
EXTT8=
EXTT9=
EXTT10=
EXTT11=
PLAYORDER=
